<svg xmlns="http://www.w3.org/2000/svg" width="16" height="16" viewBox="0 0 16 16">
    <g fill="none" stroke="#8faedd" stroke-linecap="round" stroke-linejoin="round">
        <path d="M 9 7 L 9 1.6 A 6.5 6.5 0 0 1 14.4 7 Z" />
        <path d="M 7 7 L 1.6 7 A 6.5 6.5 0 0 1 7 1.6 Z" />
        <path d="M 7 9 L 7 14.4 A 6.5 6.5 0 0 1 1.6 9 Z" />
        <path d="M 9 9 L 14.4 9 A 6.5 6.5 0 0 1 9 14.4 Z" />
        <!-- 
        - circle to check
        <path d="M8 14.5 a 6.5 6.5 0 10 0 -13 6.5 6.5 0 00 0 13" />
        -->
    </g>
</svg>